<svg width="307" height="222" viewBox="0 0 307 222" fill="none" xmlns="http://www.w3.org/2000/svg">
<path d="M19.0672 24.6661C17.3338 26.6661 17.4999 210 17.5007 207.171C22.5 207.171 51.0997 207.943 54.5 207.171C56.0003 207.171 56.0003 197.066 56.0003 177.733V150.666H123.734H191.334L198 147.466C206.534 143.466 215.467 134.799 219.067 126.933C221.734 121.333 222 117.866 222.4 96.2661L222.934 71.9995H203.467H184V88.9328C184 108.666 182.267 113.866 174.667 117.599C170.4 119.733 164.534 119.999 113.067 119.999H56.0003V91.5994C56.0003 71.3328 54.8003 61.1995 56.0003 59.9995C56.9336 59.0661 63.467 59.9995 70.1336 59.9995H81.067L82.0003 54.2661C83.3337 46.2661 86.0003 40.3995 92.0003 32.3995C94.9337 28.5328 97.3337 25.0661 97.3337 24.6661C97.3337 24.2661 80.267 23.9995 59.467 23.9995C30.1336 23.9995 20.1338 23.3328 19.0672 24.6661Z" fill="#A41D1E"/>
<path d="M119.868 25.8667C109.068 29.7333 99.6009 38.1333 94.1342 48.9333C89.4676 58.1333 89.0676 84.6667 93.3342 101.733L94.9342 108H131.201H167.601L170.534 104.8C172.268 102.933 173.201 100.933 172.668 100.133C172.134 99.2 165.468 98.6667 154.668 98.6667C145.334 98.6667 136.534 98.2667 135.334 97.8667C131.601 96.4 129.334 89.8667 129.334 80.1333C129.334 69.7333 130.934 65.0667 135.201 62.8C137.068 61.8667 155.334 61.2 190.401 61.0667L242.668 60.6667V67.3333C242.801 78.2667 243.601 78.6667 263.734 78.6667C279.734 78.6667 281.334 78.4 282.668 76.1333C283.468 74.5333 284.001 63.3333 284.001 48.8V24H204.401C142.668 24.1333 123.601 24.5333 119.868 25.8667Z" fill="black"/>
<path d="M235.468 109.2C234.935 114.8 233.335 121.867 232.001 124.933C230.668 128.133 229.868 130.8 230.401 131.067C230.935 131.467 234.268 131.733 237.735 131.867C249.201 132.133 251.735 136.133 251.735 154C251.735 163.733 249.735 169.467 245.735 171.467C244.401 172.133 208.801 172.933 166.668 173.333L90.0012 174L89.6012 191.067L89.2012 208H173.601H258.001L264.668 204.8C274.401 200.267 283.068 191.867 286.801 183.733C289.735 177.2 290.001 174.933 290.001 154C290.001 128.667 288.935 124.267 279.868 114C271.201 104.267 261.601 100.133 245.468 99.4667L236.268 99.0667L235.468 109.2Z" fill="black"/>
</svg>
